<svg width="786" height="441" viewBox="0 0 786 441" fill="none" xmlns="http://www.w3.org/2000/svg">
<path d="M481.79 440.8C422.69 357.1 351.09 292.5 241.39 292.8C131.8 293.2 60 357.29 0 440.68C0.99 438.71 141.21 165.95 207.24 37.53C221.32 10.15 260.46 10.16 274.54 37.54L481.79 440.8Z" fill="#FF6B1B"/>
<path d="M304 1.89157e-05C363.1 83.7 434.7 148.3 544.4 148C653.99 147.6 725.79 83.5101 785.79 0.120056C784.8 2.09006 644.58 274.85 578.55 403.27C564.47 430.65 525.33 430.64 511.25 403.26L304 1.89157e-05Z" fill="#FF6B1B"/>
</svg>
